<svg width="42" height="10" viewBox="0 0 42 10" fill="none" xmlns="http://www.w3.org/2000/svg">
<path d="M4.00284 8.45455L0.184659 4.63636L4.00284 0.818182L4.65909 1.46591L1.95739 4.16761H8.95455V5.10511H1.95739L4.65909 7.7983L4.00284 8.45455ZM14.881 9V0.272727H17.9322C18.5401 0.272727 19.0415 0.377841 19.4364 0.588068C19.8313 0.795454 20.1254 1.07528 20.3185 1.42756C20.5117 1.77699 20.6083 2.16477 20.6083 2.59091C20.6083 2.96591 20.5415 3.27557 20.408 3.51989C20.2773 3.7642 20.104 3.95739 19.8881 4.09943C19.6751 4.24148 19.4435 4.34659 19.1935 4.41477V4.5C19.4606 4.51705 19.729 4.6108 19.9989 4.78125C20.2688 4.9517 20.4947 5.19602 20.6765 5.5142C20.8583 5.83239 20.9492 6.22159 20.9492 6.68182C20.9492 7.11932 20.8498 7.51278 20.6509 7.86222C20.4521 8.21165 20.1381 8.48864 19.7092 8.69318C19.2802 8.89773 18.7219 9 18.0344 9H14.881ZM15.9379 8.0625H18.0344C18.7248 8.0625 19.2148 7.92898 19.5046 7.66193C19.7972 7.39205 19.9435 7.06534 19.9435 6.68182C19.9435 6.38636 19.8683 6.11364 19.7177 5.86364C19.5671 5.6108 19.3526 5.40909 19.0742 5.25852C18.7958 5.10511 18.4663 5.02841 18.0856 5.02841H15.9379V8.0625ZM15.9379 4.10795H17.8981C18.2163 4.10795 18.5032 4.04545 18.7589 3.92045C19.0174 3.79545 19.2219 3.61932 19.3725 3.39205C19.5259 3.16477 19.6026 2.89773 19.6026 2.59091C19.6026 2.20739 19.4691 1.8821 19.2021 1.61506C18.935 1.34517 18.5117 1.21023 17.9322 1.21023H15.9379V4.10795ZM24.4755 9.15341C24.0607 9.15341 23.6843 9.07528 23.3462 8.91903C23.0082 8.75994 22.7397 8.53125 22.5408 8.23295C22.342 7.93182 22.2425 7.56818 22.2425 7.14205C22.2425 6.76705 22.3164 6.46307 22.4641 6.23011C22.6119 5.99432 22.8093 5.80966 23.0565 5.67614C23.3036 5.54261 23.5763 5.44318 23.8746 5.37784C24.1758 5.30966 24.4783 5.25568 24.7823 5.21591C25.18 5.16477 25.5025 5.12642 25.7496 5.10085C25.9996 5.07244 26.1815 5.02557 26.2951 4.96023C26.4116 4.89489 26.4698 4.78125 26.4698 4.61932V4.58523C26.4698 4.16477 26.3548 3.83807 26.1246 3.60511C25.8974 3.37216 25.5522 3.25568 25.0891 3.25568C24.609 3.25568 24.2326 3.3608 23.9599 3.57102C23.6871 3.78125 23.4954 4.00568 23.3846 4.24432L22.43 3.90341C22.6005 3.50568 22.8278 3.19602 23.1119 2.97443C23.3988 2.75 23.7113 2.59375 24.0494 2.50568C24.3903 2.41477 24.7255 2.36932 25.055 2.36932C25.2653 2.36932 25.5067 2.39489 25.7795 2.44602C26.055 2.49432 26.3207 2.59517 26.5763 2.74858C26.8349 2.90199 27.0494 3.13352 27.2198 3.44318C27.3903 3.75284 27.4755 4.16761 27.4755 4.6875V9H26.4698V8.11364H26.4187C26.3505 8.25568 26.2369 8.40767 26.0778 8.5696C25.9187 8.73153 25.707 8.86932 25.4428 8.98295C25.1786 9.09659 24.8562 9.15341 24.4755 9.15341ZM24.6289 8.25C25.0266 8.25 25.3619 8.17188 25.6346 8.01562C25.9102 7.85938 26.1175 7.65767 26.2567 7.41051C26.3988 7.16335 26.4698 6.90341 26.4698 6.63068V5.71023C26.4272 5.76136 26.3335 5.80824 26.1886 5.85085C26.0465 5.89062 25.8817 5.92614 25.6942 5.95739C25.5096 5.9858 25.3292 6.01136 25.1531 6.03409C24.9798 6.05398 24.8391 6.07102 24.7312 6.08523C24.4698 6.11932 24.2255 6.17472 23.9982 6.25142C23.7738 6.32528 23.592 6.4375 23.4528 6.58807C23.3164 6.7358 23.2482 6.9375 23.2482 7.19318C23.2482 7.54261 23.3775 7.80682 23.636 7.9858C23.8974 8.16193 24.2283 8.25 24.6289 8.25ZM31.9702 9.13636C31.3565 9.13636 30.8281 8.99148 30.3849 8.7017C29.9418 8.41193 29.6009 8.01278 29.3622 7.50426C29.1236 6.99574 29.0043 6.41477 29.0043 5.76136C29.0043 5.09659 29.1264 4.50994 29.3707 4.00142C29.6179 3.49006 29.9616 3.09091 30.402 2.80398C30.8452 2.5142 31.3622 2.36932 31.9531 2.36932C32.4134 2.36932 32.8281 2.45455 33.1974 2.625C33.5668 2.79545 33.8693 3.03409 34.1051 3.34091C34.3409 3.64773 34.4872 4.00568 34.544 4.41477H33.5384C33.4616 4.11648 33.2912 3.85227 33.027 3.62216C32.7656 3.3892 32.4134 3.27273 31.9702 3.27273C31.5781 3.27273 31.2344 3.375 30.9389 3.57955C30.6463 3.78125 30.4176 4.06676 30.2528 4.43608C30.0909 4.80256 30.0099 5.23295 30.0099 5.72727C30.0099 6.23295 30.0895 6.6733 30.2486 7.0483C30.4105 7.4233 30.6378 7.71449 30.9304 7.92188C31.2259 8.12926 31.5724 8.23295 31.9702 8.23295C32.2315 8.23295 32.4688 8.1875 32.6818 8.09659C32.8949 8.00568 33.0753 7.875 33.223 7.70455C33.3707 7.53409 33.4759 7.32955 33.5384 7.09091H34.544C34.4872 7.47727 34.3466 7.82528 34.1222 8.13494C33.9006 8.44176 33.6065 8.68608 33.2401 8.8679C32.8764 9.04688 32.4531 9.13636 31.9702 9.13636ZM36.9517 6.61364L36.9347 5.36932H37.1392L40.0028 2.45455H41.2472L38.196 5.53977H38.1108L36.9517 6.61364ZM36.0142 9V0.272727H37.0199V9H36.0142ZM40.1733 9L37.6165 5.76136L38.3324 5.0625L41.4517 9H40.1733Z" fill="#91898C"/>
</svg>
