<svg width="31" height="31" viewBox="0 0 31 31" fill="none" xmlns="http://www.w3.org/2000/svg">
<path d="M11.0959 28.9558V24.2277C11.0959 23.0296 12.0702 22.0562 13.2769 22.0486H17.708C18.9201 22.0486 19.9028 23.0242 19.9028 24.2277V28.942C19.9027 29.9812 20.7472 30.8258 21.7939 30.8333H24.8169C26.2288 30.8369 27.5841 30.2826 28.5837 29.2928C29.5834 28.3029 30.1452 26.9587 30.1452 25.557V12.1265C30.1452 10.9942 29.6396 9.92018 28.7648 9.19373L18.4948 1.0395C16.6996 -0.386769 14.1355 -0.340696 12.3935 1.14913L2.34433 9.19373C1.42816 9.89877 0.880575 10.976 0.853516 12.1265V25.5433C0.853516 28.4649 3.23906 30.8333 6.18178 30.8333H9.1358C9.63974 30.8369 10.1243 30.6407 10.482 30.2882C10.8396 29.9357 11.0407 29.4561 11.0407 28.9558H11.0959Z" fill="#5348F2"/>
</svg>
