<svg width="29" height="29" viewBox="0 0 29 29" fill="none" xmlns="http://www.w3.org/2000/svg">
<path fill-rule="evenodd" clip-rule="evenodd" d="M14.5 29C22.5084 29 29 22.5084 29 14.5C29 6.49165 22.5084 0 14.5 0C6.49165 0 0 6.49165 0 14.5C0 22.5084 6.49165 29 14.5 29ZM18.85 11.6C18.85 12.7537 18.3917 13.8601 17.5759 14.6759C16.7601 15.4917 15.6537 15.95 14.5 15.95C13.3463 15.95 12.2399 15.4917 11.4241 14.6759C10.6083 13.8601 10.15 12.7537 10.15 11.6C10.15 10.4463 10.6083 9.33987 11.4241 8.52409C12.2399 7.7083 13.3463 7.25 14.5 7.25C15.6537 7.25 16.7601 7.7083 17.5759 8.52409C18.3917 9.33987 18.85 10.4463 18.85 11.6ZM5.8 21.75C6.81211 20.3984 8.12546 19.3015 9.63571 18.5464C11.146 17.7913 12.8115 17.3988 14.5 17.4C16.1885 17.3988 17.854 17.7913 19.3643 18.5464C20.8745 19.3015 22.1879 20.3984 23.2 21.75C22.1879 23.1016 20.8745 24.1985 19.3643 24.9536C17.854 25.7087 16.1885 26.1012 14.5 26.1C12.8115 26.1012 11.146 25.7087 9.63571 24.9536C8.12546 24.1985 6.81211 23.1016 5.8 21.75Z" fill="#AEAEAE"/>
</svg>
