<svg width="14" height="18" viewBox="0 0 14 18" fill="none" xmlns="http://www.w3.org/2000/svg">
<path d="M13.233 9.29174C11.9247 5.89174 7.26634 5.70841 8.39134 0.766743C8.47468 0.400076 8.08301 0.116743 7.76634 0.30841C4.74134 2.09174 2.56634 5.66674 4.39134 10.3501C4.54134 10.7334 4.09134 11.0917 3.76634 10.8417C2.25801 9.70008 2.09967 8.05841 2.23301 6.88341C2.28301 6.45008 1.71634 6.24174 1.47467 6.60008C0.908008 7.46674 0.333008 8.86674 0.333008 10.9751C0.649675 15.6417 4.59134 17.0751 6.00801 17.2584C8.03301 17.5167 10.2247 17.1417 11.7997 15.7001C13.533 14.0917 14.1663 11.5251 13.233 9.29174ZM5.49967 13.4834C6.69968 13.1917 7.31634 12.3251 7.48301 11.5584C7.75801 10.3667 6.68301 9.20008 7.40801 7.31674C7.68301 8.87508 10.133 9.85008 10.133 11.5501C10.1997 13.6584 7.91634 15.4667 5.49967 13.4834Z" fill="url(#paint0_linear_783_152)"/>
<defs>
<linearGradient id="paint0_linear_783_152" x1="6.01297" y1="1.18509" x2="9.83679" y2="17.5729" gradientUnits="userSpaceOnUse">
<stop stop-color="#DFEC27"/>
<stop offset="1" stop-color="#FE4346"/>
</linearGradient>
</defs>
</svg>
